<?xml version="1.0" encoding="UTF-8"?>
<svg width="40px" height="40px" viewBox="0 0 40 40" version="1.1" xmlns="http://www.w3.org/2000/svg" xmlns:xlink="http://www.w3.org/1999/xlink">
    <!-- Generator: Sketch 52.2 (67145) - http://www.bohemiancoding.com/sketch -->
    <title>项目列表_默认头像</title>
    <desc>Created with Sketch.</desc>
    <g id="Page-1" stroke="none" stroke-width="1" fill="none" fill-rule="evenodd">
        <g id="项目列表" transform="translate(-1312.000000, -21.000000)" stroke="#0590FF">
            <g id="用户" transform="translate(1312.000000, 21.000000)">
                <g id="项目列表_默认头像">
                    <path d="M39.4871795,20 C39.4871795,30.7630769 30.7620513,39.4871795 20,39.4871795 C9.23794872,39.4871795 0.512820513,30.7630769 0.512820513,20 C0.512820513,9.23692308 9.23794872,0.512820513 20,0.512820513 C30.7620513,0.512820513 39.4871795,9.23692308 39.4871795,20 Z" id="Stroke-1" fill="#CAE6FB"></path>
                    <path d="M32.5230769,34.9128205 C29.1384615,37.774359 24.7589744,39.4871795 20,39.4871795 C15.2410256,39.4871795 10.8615385,37.774359 7.47692308,34.9128205 C9.33333333,29.8051282 14.2461538,26.1538462 20,26.1538462 C25.7538462,26.1538462 30.6666667,29.8051282 32.5230769,34.9128205 Z" id="Stroke-3" fill="#F2F9FF"></path>
                    <path d="M26.1538462,14.8717949 C26.1538462,18.2697436 23.3979487,21.025641 20,21.025641 C16.6020513,21.025641 13.8461538,18.2697436 13.8461538,14.8717949 C13.8461538,11.4738462 16.6020513,8.71794872 20,8.71794872 C23.3979487,8.71794872 26.1538462,11.4738462 26.1538462,14.8717949 Z" id="Stroke-5" fill="#F2F9FF"></path>
                </g>
            </g>
        </g>
    </g>
</svg>