<?xml version="1.0" encoding="UTF-8"?>
<svg width="24px" height="24px" viewBox="0 0 24 24" version="1.1" xmlns="http://www.w3.org/2000/svg" xmlns:xlink="http://www.w3.org/1999/xlink">
    <!-- Generator: Sketch 64 (93537) - https://sketch.com -->
    <title>AR百科</title>
    <desc>Created with Sketch.</desc>
    <defs>
        <path d="M4.59630242,0.0762305903 L12.8898038,4.87437554 C13.5396454,5.25033668 13.9398192,5.94417401 13.9398192,6.69493421 L13.9398192,16.2931018 L13.9398192,16.2931018 L10.4411205,18.3172485 C9.78953458,18.6942188 8.98616443,18.6942188 8.33457852,18.3172485 L1.0943481,14.1284658 C0.444506498,13.7525047 0.044332693,13.0586674 0.044332693,12.3079072 L0.044332693,3.92281948 C0.044332693,3.17205928 0.444506498,2.47822194 1.0943481,2.10226081 L4.59630242,0.0762305903 L4.59630242,0.0762305903 Z" id="path-1"></path>
    </defs>
    <g id="页面-1" stroke="none" stroke-width="1" fill="none" fill-rule="evenodd">
        <g id="iPhone-8备份" transform="translate(-16.000000, -740.000000)">
            <g id="编组" transform="translate(16.000000, 740.000000)">
                <g id="AR百科">
                    <rect id="矩形" fill="#FFFFFF" x="0" y="0" width="24" height="24"></rect>
                    <g id="分组-2" transform="translate(2.666667, 1.066667)">
                        <g id="分组" transform="translate(0.000000, 2.768038)">
                            <mask id="mask-2" fill="white">
                                <use xlink:href="#path-1"></use>
                            </mask>
                            <use id="多边形" fill="#2C83FF" fill-rule="nonzero" xlink:href="#path-1"></use>
                            <path d="M9.14882083,-2.55733308 L18.4923376,2.84829065 L18.4923376,13.6595381 L13.9403679,16.2930471 L5.64686651,11.4949022 C4.99702491,11.118941 4.5968511,10.4251037 4.5968511,9.67434349 L4.5968511,0.0761759146 L4.5968511,0.0761759146 L9.14882083,-2.55733308 Z" id="多边形" fill="#4AC6FF" fill-rule="nonzero" mask="url(#mask-2)"></path>
                        </g>
                        <path d="M10.2020918,0.820067283 L17.4423222,5.00884997 C18.0921638,5.3848111 18.4923376,6.07864843 18.4923376,6.82940863 L18.4923376,15.2144963 C18.4923376,15.9652565 18.0921638,16.6590939 17.4423222,17.035055 L13.9403679,19.0610852 L13.9403679,19.0610852 L4.5968511,13.6554615 L4.5968511,2.84421401 L8.09554985,0.820067283 C8.74713576,0.44309699 9.5505059,0.44309699 10.2020918,0.820067283 Z" id="多边形" fill="#6DE1FF" fill-rule="nonzero" style="mix-blend-mode: multiply;"></path>
                    </g>
                </g>
            </g>
        </g>
    </g>
</svg>