<?xml version="1.0" standalone="no"?><!DOCTYPE svg PUBLIC "-//W3C//DTD SVG 1.1//EN" "http://www.w3.org/Graphics/SVG/1.1/DTD/svg11.dtd"><svg t="1575445859411" class="icon" viewBox="0 0 1024 1024" version="1.1" xmlns="http://www.w3.org/2000/svg" p-id="3418" xmlns:xlink="http://www.w3.org/1999/xlink" width="200" height="200"><defs><style type="text/css"></style></defs><path d="M512 956h-1.1c-10.9 0-20.5-6.9-24.7-17L369.9 654.1 85 537.8c-10.1-4.1-16.8-13.7-17.2-24.6-0.4-10.9 5.6-21 15.3-25.9l833-416.5c10.7-5.3 23.6-3.2 32.1 5.2s10.5 21.4 5.2 32.1L536.8 940.9c-4.7 9.4-14.3 15.1-24.8 15.1zM162.7 509.6l239 97.6c6.9 2.8 12.4 8.3 15.2 15.2l97.6 239 351.9-703.8-703.7 352z" fill="#009ee1" p-id="3419"></path></svg>