<?xml version="1.0" encoding="UTF-8"?>
<svg width="20px" height="20px" viewBox="0 0 20 20" version="1.1" xmlns="http://www.w3.org/2000/svg" xmlns:xlink="http://www.w3.org/1999/xlink">
    <!-- Generator: Sketch 57.1 (83088) - https://sketch.com -->
    <title>夜</title>
    <desc>Created with Sketch.</desc>
    <defs>
        <rect id="path-1" x="0" y="0" width="343" height="110" rx="8"></rect>
        <filter x="-4.8%" y="-12.3%" width="109.6%" height="130.0%" filterUnits="objectBoundingBox" id="filter-2">
            <feOffset dx="0" dy="3" in="SourceAlpha" result="shadowOffsetOuter1"></feOffset>
            <feGaussianBlur stdDeviation="5" in="shadowOffsetOuter1" result="shadowBlurOuter1"></feGaussianBlur>
            <feColorMatrix values="0 0 0 0 0.678431373   0 0 0 0 0.701960784   0 0 0 0 0.749019608  0 0 0 0.3 0" type="matrix" in="shadowBlurOuter1"></feColorMatrix>
        </filter>
    </defs>
    <g id="页面-1" stroke="none" stroke-width="1" fill="none" fill-rule="evenodd">
        <g id="画板" transform="translate(-252.000000, -368.000000)">
            <g id="编组-4" transform="translate(15.000000, 323.000000)">
                <g id="Mask">
                    <use fill="black" fill-opacity="1" filter="url(#filter-2)" xlink:href="#path-1"></use>
                    <use fill="#FFFFFF" fill-rule="evenodd" xlink:href="#path-1"></use>
                </g>
                <g id="夜" transform="translate(237.000000, 45.000000)" fill="#009FE8" fill-rule="nonzero">
                    <path d="M11.2560209,9.45068387 C11.8133548,9.86135101 12.3120221,10.2720182 12.8106893,10.7120187 C13.104023,10.1546847 13.3386899,9.59735071 13.4853568,9.04001673 L10.4933533,9.04001673 C10.2586864,9.5093506 10.0240194,9.92001775 9.73068575,10.3013515 C10.1706863,11.1226858 10.7280202,11.85602 11.4026877,12.5013541 C11.6960214,12.2080204 11.9600217,11.9440201 12.1946886,11.6213531 C11.666688,11.1520192 11.0800207,10.7120187 10.4053532,10.2720182 L11.2560209,9.45068387 L11.2560209,9.45068387 Z" id="路径"></path>
                    <path d="M9.78935248,0.474673425 C4.50934634,0.474673425 0.197341321,4.78667844 0.197341321,10.0666846 C0.197341321,15.3466907 4.50934634,19.6586957 9.78935248,19.6586957 C15.0693586,19.6586957 19.3813636,15.3466907 19.3813636,10.0666846 C19.3813636,4.81601181 15.0693586,0.474673425 9.78935248,0.474673425 L9.78935248,0.474673425 Z M4.1866793,5.40267916 L9.1440184,5.40267916 C8.96801819,5.02134538 8.76268462,4.66934497 8.55735105,4.34667793 L10.0240194,4.11201099 C10.229353,4.52267814 10.4053532,4.96267865 10.5813534,5.40267916 L15.4506924,5.40267916 L15.4506924,6.69334733 L4.1866793,6.69334733 L4.1866793,5.40267916 Z M6.797349,16.0800249 L5.4480141,16.0800249 L5.4480141,11.5626863 C5.24268052,11.7973533 5.00801359,12.0320202 4.77334665,12.2960205 L3.89334562,11.1520192 C5.15468042,9.97868448 6.00534808,8.54134948 6.41601522,6.84001417 L7.79468349,7.01601437 C7.56001655,7.92534876 7.23734951,8.80534979 6.82668237,9.62668407 L6.82668237,16.0800249 L6.797349,16.0800249 Z M14.8346917,16.0506915 C13.5440235,15.6400244 12.4293556,15.0240237 11.4613544,14.2906895 C10.5813534,14.9946903 9.49601881,15.5813577 8.26401737,16.0506915 L7.58934992,14.7600234 C8.67468452,14.3493562 9.61335228,13.8800224 10.4053532,13.3226884 C9.81868585,12.7066877 9.3200186,12.0320202 8.88001809,11.298686 C8.70401789,11.4746862 8.44001758,11.7093532 8.1466839,11.9440201 L7.26668288,10.8586855 C8.55735105,9.86135101 9.43735207,8.51201611 9.87735258,6.8106808 L11.2266875,7.04534774 L10.9920205,7.80801529 L14.776025,7.80801529 L14.776025,8.95201662 C14.3653578,10.7120187 13.6026903,12.2080204 12.4586889,13.3813551 C13.3973567,13.9973558 14.4533579,14.4960231 15.6266926,14.8480235 L14.8346917,16.0506915 L14.8346917,16.0506915 Z" id="形状"></path>
                </g>
            </g>
        </g>
    </g>
</svg>